# xmcd CD database file
#
# Track frame offsets:
#	187
#	17885
#	35827
#	53502
#	73262
#	101780
#	129992
#	154952
#
# Disc length: 2365 seconds
#
# Revision: 0
# Processed by: cddbd v1.5PL3 Copyright (c) Steve Scherf et al.
# Submitted via: CDex 1.51
#
DISCID=6e093b08
DTITLE=Dorothy Ashby And Frank Wess - In A Minor Groove
DYEAR=1958
DGENRE=Jazz
TTITLE0=Rascallity
TTITLE1=You'd Be So Nice To Come Home To
TTITLE2=It's A Minor Thing
TTITLE3=Yesterdays
TTITLE4=Bohemia After Dark
TTITLE5=Taboo
TTITLE6=Autumn In Rome
TTITLE7=Alone Together
EXTD=YEAR: 1958
EXTT0=
EXTT1=
EXTT2=
EXTT3=
EXTT4=
EXTT5=
EXTT6=
EXTT7=
PLAYORDER=
